/* XPM */
static char * virtacoin64_new_xpm[] = {
"64 64 207 2",
"  	c None",
". 	c #666666",
"+ 	c #656565",
"@ 	c #636363",
"# 	c #616161",
"$ 	c #606060",
"% 	c #5F5F5F",
"& 	c #646464",
"* 	c #5A5A5A",
"= 	c #5C5C5C",
"- 	c #6E6E6E",
"; 	c #7A7A7A",
"> 	c #808080",
", 	c #888888",
"' 	c #898989",
") 	c #818181",
"! 	c #7B7B7B",
"~ 	c #707070",
"{ 	c #5E5E5E",
"] 	c #686868",
"^ 	c #878787",
"/ 	c #ABABAB",
"( 	c #CBCBCB",
"_ 	c #E3E3E3",
": 	c #F2F2F2",
"< 	c #FCFCFC",
"[ 	c #FFFFFF",
"} 	c #FDFDFD",
"| 	c #F3F3F3",
"1 	c #E6E6E6",
"2 	c #CFCFCF",
"3 	c #B0B0B0",
"4 	c #8C8C8C",
"5 	c #6C6C6C",
"6 	c #5B5B5B",
"7 	c #5D5D5D",
"8 	c #BEBEBE",
"9 	c #EAEAEA",
"0 	c #F0F0F0",
"a 	c #C4C4C4",
"b 	c #909090",
"c 	c #9B9B9B",
"d 	c #DDDDDD",
"e 	c #FEFEFE",
"f 	c #EEEEEE",
"g 	c #DCDCDC",
"h 	c #CDCDCD",
"i 	c #C1C1C1",
"j 	c #BABABA",
"k 	c #B6B6B6",
"l 	c #B5B5B5",
"m 	c #B9B9B9",
"n 	c #C0C0C0",
"o 	c #CCCCCC",
"p 	c #D9D9D9",
"q 	c #ECECEC",
"r 	c #FBFBFB",
"s 	c #E5E5E5",
"t 	c #A5A5A5",
"u 	c #696969",
"v 	c #676767",
"w 	c #939393",
"x 	c #E2E2E2",
"y 	c #F9F9F9",
"z 	c #979797",
"A 	c #929292",
"B 	c #919191",
"C 	c #969696",
"D 	c #A3A3A3",
"E 	c #F7F7F7",
"F 	c #EBEBEB",
"G 	c #9E9E9E",
"H 	c #737373",
"I 	c #F1F1F1",
"J 	c #C6C6C6",
"K 	c #A1A1A1",
"L 	c #959595",
"M 	c #989898",
"N 	c #999999",
"O 	c #D8D8D8",
"P 	c #7E7E7E",
"Q 	c #595959",
"R 	c #F6F6F6",
"S 	c #C3C3C3",
"T 	c #9A9A9A",
"U 	c #BCBCBC",
"V 	c #A4A4A4",
"W 	c #626262",
"X 	c #B3B3B3",
"Y 	c #D6D6D6",
"Z 	c #B7B7B7",
"` 	c #8F8F8F",
" .	c #AEAEAE",
"..	c #D5D5D5",
"+.	c #CACACA",
"@.	c #EDEDED",
"#.	c #9D9D9D",
"$.	c #C5C5C5",
"%.	c #949494",
"&.	c #DBDBDB",
"*.	c #D7D7D7",
"=.	c #585858",
"-.	c #B2B2B2",
";.	c #E4E4E4",
">.	c #A6A6A6",
",.	c #6F6F6F",
"'.	c #9C9C9C",
").	c #C9C9C9",
"!.	c #BBBBBB",
"~.	c #E0E0E0",
"{.	c #A9A9A9",
"].	c #E8E8E8",
"^.	c #9F9F9F",
"/.	c #A7A7A7",
"(.	c #D1D1D1",
"_.	c #F5F5F5",
":.	c #7F7F7F",
"<.	c #CECECE",
"[.	c #A0A0A0",
"}.	c #EBF7EB",
"|.	c #F1F9F1",
"1.	c #A8A8A8",
"2.	c #ADADAD",
"3.	c #D2D2D2",
"4.	c #94D494",
"5.	c #31AA31",
"6.	c #109E10",
"7.	c #15A015",
"8.	c #47B347",
"9.	c #BFE6BF",
"0.	c #5BBD5B",
"a.	c #008E00",
"b.	c #009400",
"c.	c #009700",
"d.	c #009600",
"e.	c #009100",
"f.	c #009300",
"g.	c #A3DBA3",
"h.	c #6D6D6D",
"i.	c #7C7C7C",
"j.	c #C7C7C7",
"k.	c #9BD79B",
"l.	c #009900",
"m.	c #009500",
"n.	c #069A06",
"o.	c #E1F3E1",
"p.	c #AFAFAF",
"q.	c #8E8E8E",
"r.	c #E7E7E7",
"s.	c #32AD32",
"t.	c #008F00",
"u.	c #83CE83",
"v.	c #A2A2A2",
"w.	c #BDBDBD",
"x.	c #D0D0D0",
"y.	c #F2FAF2",
"z.	c #12A112",
"A.	c #009200",
"B.	c #58BC58",
"C.	c #F9FCF9",
"D.	c #1CA41C",
"E.	c #66C266",
"F.	c #E9E9E9",
"G.	c #DEDEDE",
"H.	c #5ABD5A",
"I.	c #009000",
"J.	c #AFDFAF",
"K.	c #DFDFDF",
"L.	c #D8EFD8",
"M.	c #0A9A0A",
"N.	c #3FB23F",
"O.	c #FDFEFD",
"P.	c #7D7D7D",
"Q.	c #757575",
"R.	c #F8F8F8",
"S.	c #C2E7C2",
"T.	c #21A221",
"U.	c #4AB54A",
"V.	c #EDF8ED",
"W.	c #868686",
"X.	c #A3D9A3",
"Y.	c #76C676",
"Z.	c #7ECA7E",
"`.	c #BEE4BE",
" +	c #B4B4B4",
".+	c #8A8A8A",
"++	c #FAFAFA",
"@+	c #858585",
"#+	c #C2C2C2",
"$+	c #BFBFBF",
"%+	c #AAAAAA",
"&+	c #717171",
"*+	c #D4D4D4",
"=+	c #DADADA",
"-+	c #F4F4F4",
";+	c #797979",
">+	c #6B6B6B",
",+	c #8D8D8D",
"'+	c #8B8B8B",
")+	c #D3D3D3",
"!+	c #E1E1E1",
"~+	c #ACACAC",
"{+	c #767676",
"]+	c #B8B8B8",
"^+	c #6A6A6A",
"/+	c #828282",
"(+	c #787878",
"                                                      . . . . . . . . . .                                                       ",
"                                                . . . + @ # $ % % $ # @ + . . .                                                 ",
"                                          . . & % * = @ - ; > , ' ) ! ~ + = * { @ . .                                           ",
"                                    . . + { * ] ^ / ( _ : < [ [ [ [ } | 1 2 3 4 5 6 7 & . .                                     ",
"                                . . & * # ^ 8 9 [ [ [ [ [ [ [ [ [ [ [ [ [ [ [ [ 0 a b + * @ . .                                 ",
"                              . + 6 & c d [ [ [ [ e f g h i j k l m n o p q r [ [ [ [ s t u * + .                               ",
"                          . v $ = w x [ [ [ y d 8 t z A b B A A w A B b B C D m p E [ [ [ F G % { v .                           ",
"                        . . * H o [ [ [ I J K A B L M N N N N N N N N N N M C A B G n F [ [ [ O P Q + .                         ",
"                      . & Q L | [ [ R S T b C N N N N N N N N N N N N N N N N N N C B C U 0 [ [ r V 6 @ v                       ",
"                    . W 7 X [ [ [ Y G b z N N N N N N N N N N N N N N N N N N N N N N M B N o [ [ [ S W $ v                     ",
"                  . W % J [ [ E Z b C N N N N N N N N N N N N N N N N N N N N N N N N N N z `  .0 [ [ ..v $ v                   ",
"                . @ % +.[ [ @.V b N N N N N N N N N N N N N N N N N N N N N N N N N N N N N N A #._ [ [ d v $ v                 ",
"              . & = $.[ [ s c w N N N N N N N N N N N N N N N N N N N N N N N N N N N N N N N N %.L &.[ [ *.W W .               ",
"            . . =.-.[ [ 1 M %.N N N N N N N N N N N N N N N N N N N N N N N N N N N N N N N N N N C %.&.[ [ J 6 + .             ",
"            v * B [ [ f c %.N N N N N N N N N N N N N N N N N N N N N N N N N N N N N N N N N N N N C L ;.[ [ >.=.v             ",
"          . # ,.: [ y >.A N N N N N N N N N N N N N N N N N N N N N N N N N N N N N N N N N N N N N N L '.I [ < P 7 .           ",
"        . . * ).[ [ !.b N N N N N N N N N N N N N N N N N N N N N N N N N N N N N N N N N N N N N N N N A  .e [ d % + .         ",
"        . = 4 [ [ g b N N N N N N N N N N N N N N N N N N N N N N N N N N N N N N N N N N M z M N N N N N ` h [ [ K Q .         ",
"      . + $ ~.[ y K L M A L N N N N N N N N N N N N N N N N N N N N N N N N N N N N N %.B L c N w B C N N z N I [ f ] @ .       ",
"      . 6 w [ [ +.` M T Z >.C N N N N N N N N N N N N N N N N N N N N N N N N N N z B {.2 ].: 0 x a ^.B N N B j [ [ /.Q .       ",
"      . 7 *.[ E #.C A (.[ R G z N N N N N N N N N N N N N N N N N N N N N N N N C z (.e [ [ [ [ [ [ _.U B N M C q [ 9 & &       ",
"    . $ :.[ [ <.b N A Y [ r [.C N N N N N N N N N N N N N N N N N N N N N N N z z x [ [ [ [ }.|.[ [ [ [ a B N B n [ [ A 7 .     ",
"    . Q X [ } 1.%.N z #.i 2.C N N N N N N N N N N N N N N N N N N N N N N N N B 3.[ [ [ 4.5.6.7.8.9.[ [ [ -.w z #.E [ ).* .     ",
"    + W ;.[ 1 w N N N z B %.N N N N N N N N N N N N N N N N N N N N N N N N L {.[ [ [ 0.a.b.c.d.e.f.g.[ [ F C M b O [ | h.@     ",
"  . # i.e [ j.b N N N N N N N N N N N N N N N N N N N N N N N N N N N N N N B 2 [ [ k.a.l.l.l.l.l.m.n.o.[ [ p.%.A m [ [ q.7 .   ",
"  . 6 G [ [ 2.%.N N N N N N N N N T C B A M N N N N N N N N N N N N N N N M %.r.[ [ s.f.l.l.l.l.l.l.t.u.[ [ j.b C v.r [ X * .   ",
"  . * w.[ R '.z N N N N N N N N N C V x.$.M M N N N N N N N N N N N N N N M M 0 [ y.z.d.l.l.l.l.l.l.A.B.[ [ (.B M L 9 [ 3.7 .   ",
"  . % Y [ 1 %.N N N N N N N N N M C ].[ [ S A N N N N N N N N N N N N N N M C @.[ C.D.m.l.l.l.l.l.l.e.E.[ [ h B N B p [ F.. &   ",
". & . F.[ *.B N N N N N N N N N M M | [ [ 2 B N N N N N N N N N N N N N N N A G.[ [ H.t.l.l.l.l.l.l.I.J.[ [ w.A N B ).[ E H W . ",
". @ ,.| [ o B N N N N N N N N N N %.l F K.^.z N N N N N N N N N N N N N N N A w.[ [ L.M.f.l.l.l.l.a.N.O.[ r K C N B 8 [ e P.$ . ",
". W Q.R.[ J B N N N N N N N N N N N %.z L C N N N N N N N N N N N N N N N N z N I [ [ S.T.I.I.I.A.U.V.[ [ 3.B N N w k [ [ W.% . ",
". # ; } [ n B N N N N N N N N N N N N M M N N N N N N N N N N N N N N N M M N w 3 e [ [ y.X.Y.Z.`.[ [ [ f T z N N w  +[ [ .+% . ",
". # ; } [ i B N N N N N N N N N N N N N N N N N N N N N N N N N N N C A N z B M B Z ++[ [ [ [ [ [ [ [ F K %.N N N w  +[ [ .+% . ",
". W Q.R.[ J B N N N N N N N N N N N N N N N N N L A L N N N N N N %.[...f q +.M z A >.&.r [ [ [ [ | +.N %.T N N N w k [ [ @+% . ",
". @ - | [ h B N N N N N N N N N N N N N N N N %.>.w./.%.N N N N C #.0 [ [ [ [ d L N L w V m a #+X #.B z N N N N N B $+[ e i.# . ",
". & + ].[ p B N N N N N N N N N N N N N N N L %+y [ ++%+%.N N N B o [ [ [ [ [ [  +w N N C A B B w z N N N N N N N b +.[ R &+@ . ",
"  . { *+[ r.L N N N N N N N N N N N N N N N b 2 [ [ [ 2 b N N N w x [ [ [ [ [ [ ).B N N N N N N N N N N N N N N N B =+[ r.+ +   ",
"  . * j [ E G z N N N N N N N N N N N N N N w Z [ [ [ Z w N N N B *.[ [ [ [ [ [ 8 A N N N N N N N N N N N N N N M C q [ x.= .   ",
"  . 6 T [ [ p.w N N N N N N N N N N N N N N N L U p w.L N N N N %.2.[ [ [ [ [ -+'.z N N N N N N N N N N N N N N C D < [ 3 * .   ",
"  . # ;+< [ +.b N N N N N N N N N N N N N N N N w B w N N N N N N A m | [ [ 9 {.%.N N N N N N N N N N N N N N N B !.[ [ .+{ .   ",
"    + # ~.[ 9 L N N N N N N N N N N N N N N N N N N N N N N N N N N A #.p.2.M %.T N N N N N N N N N N N N N N N B g [ I >+@     ",
"    . Q 3 [ e / %.N N N N N N N N N N N N N N N N N N N w B B L N N N z %.%.M N N N N N N N N N N N N N N N N C [.++[ J * .     ",
"    . $ ! } [ 3.b N N N N N N N N N N N N N N N N N N %.m p (.>.%.N N N N N N N N N N N N N N N N N N N N N N b a [ [ ,+7 .     ",
"      . = (.[ y [.C N N N N N N N N N N N N N N N N w $.[ [ [ E t L N N N N N N N N N N N N N N N N N N N N M M 0 [ s W +       ",
"      . 7 '+[ [ 2 b N N N N N N N N N N N N N N N z '.R [ [ [ [ )+B N N N N N N N N N N N N N N N N N N N N b i [ [ K * .       ",
"      . + 7 O [ < t %.N N N N N N N N N N N N N N C ^.r [ [ [ [ =+B N N N N N N N N N N N N N N N N N N N C '.-+[ F + & .       ",
"        . 7 @+[ [ !+A M N N N N N N N N N N N N N N w g [ [ [ [ Z w N N N N N N N N N N N N N N N N N N N ` *+[ [ N * .         ",
"        . . Q i [ [ #+b N N N N N N N N N N N N N N C #.p _.0 i w N N N N N N N N N N N N N N N N N N T B  +[ [ ..7 + .         ",
"          . W u q [ < ~+B N N N N N N N N N N N N N N C w G T A N N N N N N N N N N N N N N N N N N N w K R [ R.{+% .           ",
"            v 6 ^ e [ -+[.w N N N N N N N N N N N N N N N z z N N N N N N N N N N N N N N N N N N N L M 9 [ [ c Q v             ",
"            . . =.>.[ [ @.G w N N N N N N N N N N N N N N N N N N N N N N N N N N N N N N N N N N L C _ [ [ j Q . .             ",
"              . + * m [ [ @.[.B N N N N N N N N N N N N N N N N N N N N N N N N N N N N N N N N w T _ [ [ h { & .               ",
"                . @ = n [ [ | / b M N N N N N N N N N N N N N N N N N N N N N N N N N N N N N b D 9 [ [ 2 W # .                 ",
"                  . @ = ]+[ [ < n A %.N N N N N N N N N N N N N N N N N N N N N N N N N N C b Z E [ [ ( # # v                   ",
"                    . & * t [ [ [ G.V b C N N N N N N N N N N N N N N N N N N N N N N z b ^.Y [ [ [ k 7 W v                     ",
"                      . + =., 9 [ [ r o ^.b %.N N N N N N N N N N N N N N N N N N L b c $.R [ [ -+C Q & .                       ",
"                        . . 6 ^+8 [ [ [ R.x.{.%.b %.z N N N N N N N N N N z %.B w t ).| [ [ [ ( H Q . .                         ",
"                          . v W Q W...[ [ [ [ 1 j.2.'.%.B B B B B B B B w c %+#+x < [ [ [ K.b = $ v .                           ",
"                              . . 7 % ,+x.e [ [ [ [ -+s Y ( S $+$+#++..._ : [ [ [ [ [ O C W 6 + .                               ",
"                                . . + = 7 ! 3 ~.< [ [ [ [ [ [ [ [ [ [ [ [ [ [ [ ;.]+/+% 6 + . .                                 ",
"                                    . . . $ * W ; '.U ..F.| r } } r -+F p i [.:.& * % + . .                                     ",
"                                          . . + # 6 * { . ,.(+! ! (+~ ] $ * 6 $ + . .                                           ",
"                                                . . . + & @ # # # # @ & + . . .                                                 ",
"                                                        . . . . . . . .                                                         "};
