/* XPM */
static char * virtacoin16_new_xpm[] = {
"16 16 45 1",
" 	c None",
".	c #636363",
"+	c #626262",
"@	c #646464",
"#	c #6D6D6D",
"$	c #747474",
"%	c #6E6E6E",
"&	c #727272",
"*	c #898989",
"=	c #939393",
"-	c #999999",
";	c #9A9A9A",
">	c #949494",
",	c #737373",
"'	c #7A7A7A",
")	c #959595",
"!	c #ACACAC",
"~	c #D6D6D6",
"{	c #F2EFF2",
"]	c #969696",
"^	c #717171",
"/	c #BEBEBE",
"(	c #FFFFFF",
"_	c #F4FDF4",
":	c #888888",
"<	c #ADADAD",
"[	c #FEFEFE",
"}	c #F6FDF6",
"|	c #68C368",
"1	c #139E13",
"2	c #8A8A8A",
"3	c #6C6C6C",
"4	c #929292",
"5	c #D8D8D8",
"6	c #6AC36A",
"7	c #008D00",
"8	c #009600",
"9	c #D8D7D8",
"0	c #F2F0F2",
"a	c #F5FCF5",
"b	c #0D9E0D",
"c	c #009900",
"d	c #69C369",
"e	c #F5FDF5",
"f	c #797979",
"      .++.      ",
"    .@#$$%@.    ",
"   .&*=-;>*,.   ",
"  .')!~{{~!]'.  ",
" @^)/((__((/],. ",
" .:<[}|11|}[!2@ ",
".345(678876(9=%.",
"+$-0ab8cc8ba{-$+",
"+$-0ab8cc8ba{-$+",
".345(678876(9=%.",
" .:<[}d11d}[!:@ ",
" @^)/((ee((/]&. ",
"  .f)<~{{~!)'.  ",
"   .&:=--=*&.   ",
"    .@#,,#@.    ",
"      .++.      "};
