/* XPM */
static char * virtacoin32_new_xpm[] = {
"32 32 171 2",
"  	c None",
". 	c #555555",
"+ 	c #535353",
"@ 	c #525252",
"# 	c #545454",
"$ 	c #565656",
"% 	c #585858",
"& 	c #686868",
"* 	c #7D7D7D",
"= 	c #909090",
"- 	c #9D9D9D",
"; 	c #919191",
"> 	c #7F7F7F",
", 	c #696969",
"' 	c #595959",
") 	c #575757",
"! 	c #606060",
"~ 	c #8B8B8B",
"{ 	c #C8C8C8",
"] 	c #F3F3F3",
"^ 	c #FFFFFF",
"/ 	c #FEFEFE",
"( 	c #FAFAFA",
"_ 	c #FDFDFD",
": 	c #F4F4F4",
"< 	c #CCCCCC",
"[ 	c #8F8F8F",
"} 	c #616161",
"| 	c #878787",
"1 	c #E1E1E1",
"2 	c #E6E6E6",
"3 	c #BFBFBF",
"4 	c #A6A6A6",
"5 	c #9B9B9B",
"6 	c #979797",
"7 	c #A5A5A5",
"8 	c #BCBCBC",
"9 	c #E3E3E3",
"0 	c #8D8D8D",
"a 	c #5F5F5F",
"b 	c #B8B8B8",
"c 	c #DCDCDC",
"d 	c #A3A3A3",
"e 	c #929292",
"f 	c #969696",
"g 	c #989898",
"h 	c #A1A1A1",
"i 	c #D7D7D7",
"j 	c #C0C0C0",
"k 	c #626262",
"l 	c #D4D4D4",
"m 	c #B3B3B3",
"n 	c #959595",
"o 	c #999999",
"p 	c #AEAEAE",
"q 	c #FCFCFC",
"r 	c #676767",
"s 	c #5E5E5E",
"t 	c #D5D5D5",
"u 	c #A2A2A2",
"v 	c #9E9E9E",
"w 	c #F6F6F6",
"x 	c #DEDEDE",
"y 	c #B9B9B9",
"z 	c #949494",
"A 	c #C4C4C4",
"B 	c #848484",
"C 	c #B5B5B5",
"D 	c #8E8E8E",
"E 	c #939393",
"F 	c #E2E2E2",
"G 	c #9F9F9F",
"H 	c #9A9A9A",
"I 	c #B5B4B5",
"J 	c #BFBDBF",
"K 	c #ABABAB",
"L 	c #DADADA",
"M 	c #EBEBEB",
"N 	c #FBFBFB",
"O 	c #A8A8A8",
"P 	c #AAAAAA",
"Q 	c #F8F2F8",
"R 	c #DAD8DA",
"S 	c #C5C5C5",
"T 	c #EDEDED",
"U 	c #9C9C9C",
"V 	c #B2B2B2",
"W 	c #F8F7F8",
"X 	c #D7F2D7",
"Y 	c #3CAE3C",
"Z 	c #1FA01F",
"` 	c #6DC56D",
" .	c #D4D2D4",
"..	c #888888",
"+.	c #E5E5E5",
"@.	c #D0D0D0",
"#.	c #656565",
"$.	c #F2F2F2",
"%.	c #C3C1C3",
"&.	c #24A824",
"*.	c #008F00",
"=.	c #009600",
"-.	c #008C00",
";.	c #8CD38C",
">.	c #BABABA",
",.	c #F8F8F8",
"'.	c #6A6A6A",
").	c #797979",
"!.	c #D3D3D3",
"~.	c #D4CFD4",
"{.	c #F0FEF0",
"].	c #009700",
"^.	c #009800",
"/.	c #009900",
"(.	c #009100",
"_.	c #4EB84E",
":.	c #818181",
"<.	c #8A8A8A",
"[.	c #E4E4E4",
"}.	c #BDBCBD",
"|.	c #3AB03A",
"1.	c #009300",
"2.	c #008D00",
"3.	c #A0DBA0",
"4.	c #FFFCFF",
"5.	c #EFEEEF",
"6.	c #EFFCEF",
"7.	c #62BF62",
"8.	c #40AE40",
"9.	c #95D695",
"0.	c #C7C6C7",
"a.	c #F9F9F9",
"b.	c #E7E4E7",
"c.	c #FFFEFF",
"d.	c #C9C9C9",
"e.	c #939493",
"f.	c #D9D9D9",
"g.	c #C2C2C2",
"h.	c #F5F5F5",
"i.	c #A7A7A7",
"j.	c #ADADAD",
"k.	c #787878",
"l.	c #E9E9E9",
"m.	c #BDBDBD",
"n.	c #A9A9A9",
"o.	c #808080",
"p.	c #646464",
"q.	c #F0F0F0",
"r.	c #C6C6C6",
"s.	c #D6D6D6",
"t.	c #F7F7F7",
"u.	c #C3C3C3",
"v.	c #EFEFEF",
"w.	c #A0A0A0",
"x.	c #E7E7E7",
"y.	c #CECECE",
"z.	c #5C5C5C",
"A.	c #CACACA",
"B.	c #DDDDDD",
"C.	c #E8E8E8",
"D.	c #898989",
"E.	c #BEBEBE",
"F.	c #CFCFCF",
"G.	c #B7B7B7",
"H.	c #5D5D5D",
"I.	c #B1B1B1",
"J.	c #DFDFDF",
"K.	c #858585",
"L.	c #C1C1C1",
"M.	c #EEEEEE",
"N.	c #666666",
"                          . + @ @ + #                           ",
"                    $ % & * = - - ; > , ' .                     ",
"                ) ! ~ { ] ^ / ( ( _ ^ : < [ } $                 ",
"              % | 1 ^ 2 3 4 5 6 6 5 7 8 9 ^ 2 0 '               ",
"            a b ^ c d ; e f g g g g f e = h i ^ j k             ",
"          k l ^ m [ n o o o o o o o o o o f [ p q c r           ",
"        s t ( u ; o o o o o o o o o o o o o o e v w x }         ",
"      % y ^ u e o o o o o o o o o o o o o o o o z v _ A %       ",
"    % B ^ C D o o o o o o o o o o o o o o g E e n ; p ^ 0 $     ",
"    s F F [ G o o o o o o o o o o o o H z H I J K E 0 L M }     ",
"  ) | ^ d d N O n o o o o o o o o o o E P Q ^ ^ ^ R E G ^ ; #   ",
"  ) S T = U V U g o o o o o o o o o 6 U W X Y Z ` ^  ...+.@.%   ",
"  #.$.A ; o z g o E E o o o o o o o e %.^ &.*.=.-.;.^ f >.,.'.  ",
"% ).^ P n o o o n !.l n o o o o o o ; ~.{.].^./.(._.^ d h ^ :.# ",
". <.^ v 6 o o o n [.+.n o o o o o o e }.^ |.-.1.2.3.4.o o _ z @ ",
"# n _ H g o o o g 6 6 g o o o o o z = n 5.6.7.8.9.^ 0.; 6 a.G @ ",
"# n _ H g o o o o g o g e z o o n p S h U b.^ ^ c.d.e.g 6 a.G @ ",
". <.^ G 6 o o o o o 6 - f.g.n n P / ^ h.o e i.j.G e g g H / z @ ",
"% k.^ K n o o o o o n i.^ l.E e m.^ ^ ^ n.n n z 6 o o f 7 ^ o.# ",
"  p.q.r.; o o o o o o 6 j.d f 6 U +.( s.f g o o o o o e m.t.,   ",
"  ) u.v.; o o o o o o o n E 6 f n 6 w.z g o o o o o o = x.y.%   ",
"  % B ^ O z o o o o o o f 4 M [.v f 6 o o o o o o o n u ^ D .   ",
"    z.x +.[ o o o o o o = A.^ ^ b e o o o o o o o o [ B.C.!     ",
"    ' o.^ y = o o o o o f 7 C.1 - 6 o o o o o o o ; V ^ D.)     ",
"      % m ^ 4 e o o o o H f n z 6 o o o o o o o E h ^ E.%       ",
"        z.F./ 4 = o o o o o o o o o o o o o o ; h a.f.a         ",
"          } y.^ G.= z o o o o o o o o o o n [ V ^ i p.          ",
"            H.I.^ 1 O ; ; n 6 g g 6 n ; ; 7 B.^ y !             ",
"              % :.L ^ M A P v H o v n.g.l.^ J.| %               ",
"                ' s K.L.M./ ^ q q ^ ^ q.A D.a %                 ",
"                    % % #.k.<.n f ~ ).N.% )                     ",
"                          % . # # . )                           "};
